<svg version="1.2" xmlns="http://www.w3.org/2000/svg" viewBox="0 0 269 157" width="269" height="157">
	<title>Web_Surfcast_ai (1)-ai</title>
	<style>
		tspan { white-space:pre } 
		.s0 { opacity: .1;fill: #001b8d } 
		.t1 { font-size: 37px;line-height: 24px;fill: #2b2b2b;font-weight: 800;font-family: "Futura PT" } 
		.t2 { font-size: 37px;line-height: 24px;fill: #2b2b2b;font-weight: 300;font-family: "Futura PT" } 
		.s3 { fill: #001b8d } 
		.t4 { font-size: 9px;line-height: 11px;fill: #2b2b2b;font-family: "Futura PT" } 
	</style>
	<g id="Capa 1">
		<g id="&lt;Group&gt;">
			<path id="&lt;Path&gt;" class="s0" d="m22.8 87.9c1.2-32.7 10.5-56.1 57.8-66.6 44.6-9.9 71.6 29.9 60.7 60.7-16.2 46-28.6 18-60.9 42.4-26.1 19.7-59.1 6.5-57.6-36.5z"/>
			<path id="&lt;Path&gt;" class="s0" d="m32.5 43.1c24-22.3 47-32.3 87.9-6.3 38.6 24.6 29.5 71.8 0 85.9-43.9 21.1-33-7.5-73-13.1-32.4-4.5-46.4-37.2-14.9-66.5z"/>
			<text id="SURFCAST
" style="transform: matrix(1,0,0,1,59.946,92.759)" >
				<tspan x="0" y="0" class="t1">SURF</tspan><tspan  y="0" class="t2">CAST
</tspan>
			</text>
			<g id="&lt;Group&gt;">
				<g id="&lt;Group&gt;">
					<g id="&lt;Group&gt;">
						<path id="&lt;Path&gt;" class="s3" d="m63.4 147.2c-0.3 1.4-1.7 2.2-3 1.9-30.9-8-53.2-35.2-55-67.1-0.1-0.5 5.1-0.6 5.1-0.1 1.8 29.7 22.5 54.8 51.1 62.2 1.3 0.3 2.1 1.6 1.8 2.9z"/>
					</g>
					<g id="&lt;Group&gt;">
						<path id="&lt;Path&gt;" class="s3" d="m82.4 148.8v-0.2c-0.1-1.3 0.9-2.4 2.3-2.5 18.7-1.6 35.9-10.8 47.7-25.5 0.8-1 2.3-1.3 3.4-0.5l0.2 0.2c1.1 0.8 1.3 2.4 0.4 3.5-12.7 15.8-31.2 25.7-51.4 27.4-1.3 0.1-2.5-1-2.6-2.4z"/>
					</g>
					<g id="&lt;Group&gt;">
						<path id="&lt;Path&gt;" class="s3" d="m12.1 53.7h-0.1c-1.3-0.5-2-2-1.5-3.3 11.1-27.8 38.3-46.3 68.4-46.3q2.9 0 5.8 0.3c0.5 0-0.2 5.1-0.8 5q-2.5-0.1-5-0.1c-28 0-53.3 17.2-63.6 43-0.5 1.3-1.9 1.9-3.2 1.4z"/>
					</g>
					<g id="&lt;Group&gt;">
						<path id="&lt;Path&gt;" class="s3" d="m44.6 114.5c-0.7 0.8-2 0.8-2.8 0-9.6-9.7-15.1-23-15.1-36.7 0-9.8 2.7-19.3 7.8-27.5 0.4-0.6 3.6 1.5 3.3 2-4.8 7.6-7.3 16.4-7.3 25.5 0 12.7 5.1 25 14.1 34 0.7 0.8 0.7 1.9 0 2.7z"/>
					</g>
					<g id="&lt;Group&gt;">
						<path id="&lt;Path&gt;" class="s3" d="m46.9 39c-0.7-0.8-0.5-2.1 0.3-2.7 9.1-6.9 20.3-10.7 31.7-10.7 11.4 0 22.5 3.7 31.6 10.6 0.5 0.4-1.9 3.4-2.5 3-8.3-6.3-18.6-9.8-29.1-9.8-10.6 0-21 3.5-29.3 9.9-0.9 0.7-2 0.5-2.7-0.3z"/>
					</g>
					<g id="&lt;Group&gt;">
						<path id="&lt;Path&gt;" class="s3" d="m47.7 82.2c-0.7 0.1-1.4-0.4-1.4-1.1q-0.2-1.7-0.2-3.3c0-6.8 2-13.2 5.9-18.8 3.5-5 8.2-8.9 13.8-11.3 0.7-0.3 1.4 0 1.7 0.7 0.3 0.6 0 1.4-0.7 1.6-10.9 4.8-18.1 15.8-18.1 27.8q0 1.5 0.1 3.1c0.1 0.6-0.4 1.3-1.1 1.3z"/>
					</g>
					<g id="&lt;Group&gt;">
						<path id="&lt;Compound Path&gt;" fill-rule="evenodd" class="s3" d="m95.9 7.5c0 4-3.2 7.2-7.2 7.2-4 0-7.2-3.2-7.2-7.2 0-4 3.2-7.2 7.2-7.2 4 0 7.2 3.2 7.2 7.2zm-10.6 0c0 1.9 1.5 3.4 3.4 3.4 1.9 0 3.4-1.5 3.4-3.4 0-1.9-1.5-3.4-3.4-3.4-1.9 0-3.4 1.5-3.4 3.4z"/>
					</g>
					<g id="&lt;Group&gt;">
						<path id="&lt;Compound Path&gt;" fill-rule="evenodd" class="s3" d="m15.2 77.2c0 3.9-3.2 7.2-7.2 7.2-4 0-7.3-3.3-7.3-7.2 0-4 3.3-7.3 7.3-7.3 4 0 7.2 3.3 7.2 7.3zm-10.6 0c0 1.8 1.5 3.3 3.4 3.3 1.8 0 3.4-1.5 3.4-3.3 0-1.9-1.6-3.4-3.4-3.4-1.9 0-3.4 1.5-3.4 3.4z"/>
					</g>
					<g id="&lt;Group&gt;">
						<path id="&lt;Compound Path&gt;" fill-rule="evenodd" class="s3" d="m46.4 47.2c0 4-3.2 7.2-7.2 7.2-4 0-7.2-3.2-7.2-7.2 0-4 3.2-7.2 7.2-7.2 4 0 7.2 3.2 7.2 7.2zm-10.6 0c0 1.8 1.5 3.4 3.4 3.4 1.9 0 3.4-1.6 3.4-3.4 0-1.9-1.5-3.4-3.4-3.4-1.9 0-3.4 1.5-3.4 3.4z"/>
					</g>
					<g id="&lt;Group&gt;">
						<path id="&lt;Compound Path&gt;" fill-rule="evenodd" class="s3" d="m85.8 148.9c0 4-3.3 7.2-7.2 7.2-4 0-7.3-3.2-7.3-7.2 0-4 3.3-7.2 7.3-7.2 3.9 0 7.2 3.2 7.2 7.2zm-10.6 0c0 1.9 1.5 3.4 3.4 3.4 1.8 0 3.3-1.5 3.3-3.4 0-1.9-1.5-3.4-3.3-3.4-1.9 0-3.4 1.5-3.4 3.4z"/>
					</g>
					<g id="&lt;Group&gt;">
						<path id="&lt;Compound Path&gt;" fill-rule="evenodd" class="s3" d="m69.9 52.1c-2.5 0-4.6-2.1-4.6-4.7 0-2.5 2.1-4.6 4.6-4.6 2.6 0 4.7 2.1 4.7 4.6 0 2.6-2.1 4.7-4.7 4.7zm0-6.8c-1.1 0-2.1 1-2.1 2.1 0 1.2 1 2.1 2.1 2.1 1.2 0 2.1-0.9 2.1-2.1 0-1.1-0.9-2.1-2.1-2.1z"/>
					</g>
					<g id="&lt;Group&gt;">
						<path id="&lt;Compound Path&gt;" fill-rule="evenodd" class="s3" d="m119.9 40.6c0 4-3.2 7.2-7.2 7.2-4 0-7.2-3.2-7.2-7.2 0-4 3.2-7.3 7.2-7.3 4 0 7.2 3.3 7.2 7.3zm-10.6 0c0 1.8 1.5 3.4 3.4 3.4 1.9 0 3.4-1.6 3.4-3.4 0-1.9-1.5-3.4-3.4-3.4-1.9 0-3.4 1.5-3.4 3.4z"/>
					</g>
				</g>
			</g>
			<text id="FIND YOUR PERFECT DEAL
" style="transform: matrix(1,0,0,1,214.123,108.132)" >
				<tspan x="-155.2" y="0" class="t4" dx="0 1 1 1 1 1 1 1 1 1 1 1 1 1 1 1 1 1 1 1 1 1 1" >FIND YOUR PERFECT DEAL
</tspan>
			</text>
		</g>
	</g>
</svg>